<svg width="30" height="31" viewBox="0 0 30 31" fill="none" xmlns="http://www.w3.org/2000/svg">
<path d="M12.3961 9.34495C12.613 9.56624 12.7346 9.86379 12.7346 10.1737C12.7346 10.4836 12.613 10.7812 12.3961 11.0024L10.5023 12.8962C10.281 13.1132 9.98348 13.2347 9.67357 13.2347C9.36366 13.2347 9.0661 13.1132 8.84482 12.8962L5.65982 9.71245C5.04107 9.09495 4.00107 9.2962 3.85232 10.1574C3.65795 11.2846 3.7387 12.4421 4.08769 13.5314C4.43668 14.6207 5.0436 15.6096 5.85681 16.4139C6.67002 17.2183 7.66548 17.8144 8.75851 18.1514C9.85154 18.4885 11.0098 18.5566 12.1348 18.3499C13.1598 18.1624 14.2686 18.3224 15.0048 19.0574L21.9623 26.0162C22.1938 26.2572 22.4711 26.4496 22.7779 26.5821C23.0847 26.7146 23.4148 26.7845 23.749 26.7879C24.0831 26.7912 24.4146 26.7279 24.724 26.6015C25.0334 26.4752 25.3144 26.2884 25.5507 26.0521C25.787 25.8158 25.9738 25.5347 26.1002 25.2254C26.2265 24.916 26.2898 24.5845 26.2865 24.2504C26.2832 23.9162 26.2132 23.5861 26.0807 23.2793C25.9482 22.9725 25.7558 22.6952 25.5148 22.4637L18.5561 15.5062C17.8211 14.7699 17.6611 13.6599 17.8486 12.6362C18.0546 11.5113 17.9861 10.3533 17.6488 9.26052C17.3115 8.16776 16.7155 7.17257 15.9112 6.3595C15.107 5.54643 14.1184 4.93951 13.0294 4.59031C11.9404 4.24111 10.7832 4.15994 9.65607 4.3537C8.79482 4.5037 8.59357 5.54245 9.21107 6.1612L12.3961 9.34495Z" stroke="#595959" stroke-width="2" stroke-linecap="round" stroke-linejoin="round"/>
</svg>
