<svg width="30" height="31" viewBox="0 0 30 31" fill="none" xmlns="http://www.w3.org/2000/svg">
<path d="M26.4849 10.21C26.1784 9.53395 25.6781 8.96405 25.0474 8.57253L16.9599 3.57253C16.3681 3.20748 15.6865 3.01416 14.9911 3.01416C14.2958 3.01416 13.6142 3.20748 13.0224 3.57253L4.93489 8.57253C4.32364 8.95964 3.83743 9.5153 3.53489 10.1725C3.23426 10.8378 3.13434 11.5763 3.24739 12.2975L5.33489 24.7975C5.47584 25.667 5.91837 26.4591 6.58489 27.035C7.25842 27.6046 8.11542 27.911 8.99739 27.8975H12.1724C12.296 27.8992 12.4186 27.8761 12.5331 27.8296C12.6476 27.7831 12.7517 27.7141 12.839 27.6267C12.9264 27.5393 12.9954 27.4353 13.042 27.3208C13.0885 27.2063 13.1116 27.0836 13.1099 26.96V22.3975C13.1131 22.13 13.2208 21.8743 13.41 21.6852C13.5992 21.496 13.8549 21.3883 14.1224 21.385H15.7849C16.0562 21.3876 16.3161 21.4951 16.5099 21.685C16.6024 21.779 16.6755 21.8903 16.7248 22.0126C16.7741 22.1348 16.7988 22.2657 16.7974 22.3975V27.0475C16.8006 27.2952 16.9004 27.5317 17.0756 27.7069C17.2507 27.882 17.4873 27.9818 17.7349 27.985H20.9724C21.8529 27.9802 22.7036 27.6657 23.3756 27.0967C24.0475 26.5276 24.4977 25.7402 24.6474 24.8725L26.7349 12.3725C26.8719 11.643 26.7847 10.8891 26.4849 10.21ZM20.5599 15.335H9.48489C9.15337 15.335 8.83542 15.2033 8.601 14.9689C8.36658 14.7345 8.23489 14.4165 8.23489 14.085C8.23489 13.7535 8.36658 13.4356 8.601 13.2011C8.83542 12.9667 9.15337 12.835 9.48489 12.835H20.6099C20.9414 12.835 21.2593 12.9667 21.4938 13.2011C21.7282 13.4356 21.8599 13.7535 21.8599 14.085C21.8599 14.4165 21.7282 14.7345 21.4938 14.9689C21.2593 15.2033 20.9414 15.335 20.6099 15.335H20.5599Z" fill="#25587D"/>
</svg>
