<svg width="34" height="34" viewBox="0 0 34 34" fill="none" xmlns="http://www.w3.org/2000/svg">
<path d="M26.1755 13.8124V18.9691C26.1755 19.7656 26.3993 20.5461 26.8215 21.2216L28.3657 23.6866C28.4998 23.9011 28.574 24.1477 28.5805 24.4006C28.5871 24.6535 28.5258 24.9036 28.4031 25.1248C28.2803 25.346 28.1006 25.5303 27.8825 25.6586C27.6644 25.7868 27.4159 25.8543 27.1629 25.8541H6.83659C6.58371 25.8541 6.33544 25.7864 6.11755 25.658C5.89966 25.5297 5.7201 25.3453 5.59751 25.1242C5.47492 24.903 5.41377 24.653 5.42041 24.4002C5.42705 24.1474 5.50123 23.901 5.63526 23.6866L7.17659 21.2216C7.59925 20.5463 7.82359 19.7657 7.82401 18.9691V13.0701C7.82416 11.5558 8.19907 10.0651 8.9153 8.73098C9.63153 7.39681 10.6668 6.26065 11.9288 5.4238C13.1908 4.58695 14.6403 4.07544 16.148 3.93488C17.6557 3.79432 19.1748 4.02909 20.5698 4.61824" stroke="white" stroke-width="1.5" stroke-linecap="round" stroke-linejoin="round"/>
<path d="M14.166 30.104H19.8327" stroke="white" stroke-width="1.5" stroke-linecap="round"/>
<path d="M26.2077 11.3333C28.1637 11.3333 29.7493 9.74768 29.7493 7.79167C29.7493 5.83566 28.1637 4.25 26.2077 4.25C24.2517 4.25 22.666 5.83566 22.666 7.79167C22.666 9.74768 24.2517 11.3333 26.2077 11.3333Z" fill="white"/>
</svg>
