<svg width="30" height="31" viewBox="0 0 30 31" fill="none" xmlns="http://www.w3.org/2000/svg">
<path d="M15 3C21.9037 3 27.5 8.59625 27.5 15.5C27.5 22.4038 21.9037 28 15 28C8.09625 28 2.5 22.4038 2.5 15.5H5C5.00027 17.8943 5.85962 20.2091 7.42186 22.0236C8.98409 23.838 11.1455 25.0317 13.5132 25.3877C15.8809 25.7437 18.2978 25.2383 20.3245 23.9635C22.3512 22.6886 23.8532 20.7289 24.5576 18.4405C25.2619 16.1521 25.1217 13.6869 24.1626 11.4931C23.2035 9.29923 21.4891 7.52234 19.3309 6.48537C17.1728 5.4484 14.7142 5.22018 12.4021 5.8422C10.09 6.46422 8.07779 7.89519 6.73125 9.875H10V12.375H2.5V4.875H5V8C6.16366 6.44683 7.67332 5.18626 9.40917 4.31834C11.145 3.45042 13.0593 2.99903 15 3ZM16.25 9.25V14.9813L20.3037 19.035L18.535 20.8038L13.75 16.0163V9.25H16.25Z" fill="#595959"/>
</svg>
