<svg width="64" height="64" viewBox="0 0 64 64" fill="none" xmlns="http://www.w3.org/2000/svg">
<path d="M56.0003 56V13.3333H8.00033V34.6667H2.66699V13.3333C2.66699 11.8667 3.18966 10.6116 4.23499 9.568C5.28033 8.52444 6.53544 8.00178 8.00033 8H56.0003C57.467 8 58.723 8.52267 59.7683 9.568C60.8137 10.6133 61.3354 11.8684 61.3337 13.3333V50.6667C61.3337 52.1333 60.8119 53.3893 59.7683 54.4347C58.7248 55.48 57.4688 56.0018 56.0003 56ZM24.0003 37.3333C21.067 37.3333 18.5559 36.2889 16.467 34.2C14.3781 32.1111 13.3337 29.6 13.3337 26.6667C13.3337 23.7333 14.3781 21.2222 16.467 19.1333C18.5559 17.0444 21.067 16 24.0003 16C26.9337 16 29.4448 17.0444 31.5337 19.1333C33.6225 21.2222 34.667 23.7333 34.667 26.6667C34.667 29.6 33.6225 32.1111 31.5337 34.2C29.4448 36.2889 26.9337 37.3333 24.0003 37.3333ZM2.66699 58.6667V51.2C2.66699 49.6889 3.05633 48.3004 3.83499 47.0347C4.61366 45.7689 5.64655 44.8018 6.93366 44.1333C9.68921 42.7556 12.4892 41.7227 15.3337 41.0347C18.1781 40.3467 21.067 40.0018 24.0003 40C26.9337 39.9982 29.8225 40.3431 32.667 41.0347C35.5114 41.7262 38.3114 42.7591 41.067 44.1333C42.3559 44.8 43.3897 45.7671 44.1683 47.0347C44.947 48.3022 45.3354 49.6907 45.3337 51.2V58.6667H2.66699Z" fill="black"/>
</svg>
