<svg width="64" height="64" viewBox="0 0 64 64" fill="none" xmlns="http://www.w3.org/2000/svg">
<path fill-rule="evenodd" clip-rule="evenodd" d="M16.723 5.63167C14.563 5.91434 13.4217 6.43434 12.6057 7.23167C11.7923 8.03167 11.2617 9.15167 10.971 11.2663C10.6723 13.445 10.667 16.3303 10.667 20.4663V43.3197C11.7229 42.5987 12.8945 42.0639 14.131 41.7383C15.539 41.3677 17.1817 41.3677 19.5897 41.3703H53.3337V20.469C53.3337 16.3303 53.3283 13.445 53.0297 11.2663C52.739 9.15167 52.2083 8.03167 51.395 7.23167C50.579 6.43434 49.4377 5.91434 47.2777 5.63167C45.0537 5.33834 42.1097 5.33301 37.8857 5.33301H26.115C21.891 5.33301 18.947 5.33834 16.723 5.63167ZM18.0243 17.5863C18.0243 16.3917 19.011 15.4237 20.2297 15.4237H43.771C44.3496 15.4187 44.9065 15.6432 45.3199 16.0481C45.7332 16.4529 45.9693 17.0051 45.9763 17.5837C45.97 18.1627 45.7343 18.7156 45.3208 19.121C44.9074 19.5264 44.35 19.7513 43.771 19.7463H20.2297C19.6511 19.7513 19.0941 19.5268 18.6808 19.1219C18.2674 18.7171 18.0314 18.1649 18.0243 17.5863ZM20.2297 25.5143C19.6511 25.5094 19.0941 25.7339 18.6808 26.1387C18.2674 26.5436 18.0314 27.0958 18.0243 27.6743C18.0243 28.869 19.011 29.837 20.2297 29.837H34.9417C35.5207 29.8427 36.0783 29.6185 36.4923 29.2135C36.9062 28.8086 37.1426 28.256 37.1497 27.677C37.1433 27.0975 36.9072 26.5443 36.4932 26.1387C36.0792 25.7332 35.5212 25.5087 34.9417 25.5143H20.2297Z" fill="black"/>
<path d="M19.9284 45.6934H53.3337C53.3257 48.7067 53.2777 50.9574 53.0324 52.7334C52.7417 54.848 52.2111 55.968 51.3977 56.768C50.5817 57.5654 49.4404 58.0854 47.2804 58.368C45.0564 58.6614 42.1124 58.6667 37.8884 58.6667H26.1151C21.8911 58.6667 18.9471 58.6614 16.7231 58.3707C14.5631 58.0854 13.4217 57.5654 12.6057 56.768C11.7924 55.968 11.2617 54.848 10.9711 52.7334C10.8617 51.9334 10.7897 51.0347 10.7471 50.0134C11.1126 49.0145 11.7155 48.1195 12.5038 47.4055C13.2922 46.6914 14.2423 46.1798 15.2724 45.9147C16.0457 45.712 17.0511 45.6934 19.9284 45.6934Z" fill="black"/>
</svg>
