<svg width="64" height="64" viewBox="0 0 64 64" fill="none" xmlns="http://www.w3.org/2000/svg">
<path d="M5.33301 32.0003C5.33301 21.9443 5.33301 16.915 8.45834 13.7923C11.5837 10.6697 16.6103 10.667 26.6663 10.667H37.333C47.389 10.667 52.4183 10.667 55.541 13.7923C58.6637 16.9177 58.6663 21.9443 58.6663 32.0003V37.3337C58.6663 47.3897 58.6663 52.419 55.541 55.5417C52.4157 58.6643 47.389 58.667 37.333 58.667H26.6663C16.6103 58.667 11.581 58.667 8.45834 55.5417C5.33567 52.4163 5.33301 47.3897 5.33301 37.3337V32.0003Z" stroke="black" stroke-width="1.5"/>
<path d="M18.666 10.667V6.66699M45.3327 10.667V6.66699M6.66602 24.0003H57.3327" stroke="black" stroke-width="1.5" stroke-linecap="round"/>
<path d="M48 45.3333C48 46.0406 47.7191 46.7189 47.219 47.219C46.7189 47.7191 46.0406 48 45.3333 48C44.6261 48 43.9478 47.7191 43.4477 47.219C42.9476 46.7189 42.6667 46.0406 42.6667 45.3333C42.6667 44.6261 42.9476 43.9478 43.4477 43.4477C43.9478 42.9476 44.6261 42.6667 45.3333 42.6667C46.0406 42.6667 46.7189 42.9476 47.219 43.4477C47.7191 43.9478 48 44.6261 48 45.3333ZM48 34.6667C48 35.3739 47.7191 36.0522 47.219 36.5523C46.7189 37.0524 46.0406 37.3333 45.3333 37.3333C44.6261 37.3333 43.9478 37.0524 43.4477 36.5523C42.9476 36.0522 42.6667 35.3739 42.6667 34.6667C42.6667 33.9594 42.9476 33.2811 43.4477 32.781C43.9478 32.281 44.6261 32 45.3333 32C46.0406 32 46.7189 32.281 47.219 32.781C47.7191 33.2811 48 33.9594 48 34.6667ZM34.6667 45.3333C34.6667 46.0406 34.3857 46.7189 33.8856 47.219C33.3855 47.7191 32.7072 48 32 48C31.2928 48 30.6145 47.7191 30.1144 47.219C29.6143 46.7189 29.3333 46.0406 29.3333 45.3333C29.3333 44.6261 29.6143 43.9478 30.1144 43.4477C30.6145 42.9476 31.2928 42.6667 32 42.6667C32.7072 42.6667 33.3855 42.9476 33.8856 43.4477C34.3857 43.9478 34.6667 44.6261 34.6667 45.3333ZM34.6667 34.6667C34.6667 35.3739 34.3857 36.0522 33.8856 36.5523C33.3855 37.0524 32.7072 37.3333 32 37.3333C31.2928 37.3333 30.6145 37.0524 30.1144 36.5523C29.6143 36.0522 29.3333 35.3739 29.3333 34.6667C29.3333 33.9594 29.6143 33.2811 30.1144 32.781C30.6145 32.281 31.2928 32 32 32C32.7072 32 33.3855 32.281 33.8856 32.781C34.3857 33.2811 34.6667 33.9594 34.6667 34.6667ZM21.3333 45.3333C21.3333 46.0406 21.0524 46.7189 20.5523 47.219C20.0522 47.7191 19.3739 48 18.6667 48C17.9594 48 17.2811 47.7191 16.781 47.219C16.281 46.7189 16 46.0406 16 45.3333C16 44.6261 16.281 43.9478 16.781 43.4477C17.2811 42.9476 17.9594 42.6667 18.6667 42.6667C19.3739 42.6667 20.0522 42.9476 20.5523 43.4477C21.0524 43.9478 21.3333 44.6261 21.3333 45.3333ZM21.3333 34.6667C21.3333 35.3739 21.0524 36.0522 20.5523 36.5523C20.0522 37.0524 19.3739 37.3333 18.6667 37.3333C17.9594 37.3333 17.2811 37.0524 16.781 36.5523C16.281 36.0522 16 35.3739 16 34.6667C16 33.9594 16.281 33.2811 16.781 32.781C17.2811 32.281 17.9594 32 18.6667 32C19.3739 32 20.0522 32.281 20.5523 32.781C21.0524 33.2811 21.3333 33.9594 21.3333 34.6667Z" fill="black"/>
</svg>
