<svg width="64" height="64" viewBox="0 0 64 64" fill="none" xmlns="http://www.w3.org/2000/svg">
<path d="M10.667 48V16M53.3337 16V48" stroke="black" stroke-width="1.5" stroke-linecap="round"/>
<path d="M53.3337 31.9997C53.3337 37.893 43.7817 42.6663 32.0003 42.6663C20.219 42.6663 10.667 37.893 10.667 31.9997M53.3337 47.9997C53.3337 53.893 43.7817 58.6663 32.0003 58.6663C20.219 58.6663 10.667 53.893 10.667 47.9997M32.0003 26.6663C43.7817 26.6663 53.3337 21.893 53.3337 15.9997C53.3337 10.1063 43.7817 5.33301 32.0003 5.33301C20.219 5.33301 10.667 10.1063 10.667 15.9997C10.667 21.893 20.219 26.6663 32.0003 26.6663Z" stroke="black" stroke-width="1.5"/>
</svg>
