<svg width="68" height="50" viewBox="0 0 68 50" fill="none" xmlns="http://www.w3.org/2000/svg">
<path d="M43.54 9.38281L35.4575 4.36031C35.0151 4.08462 34.5043 3.93848 33.9831 3.93848C33.4618 3.93848 32.9511 4.08462 32.5087 4.36031L24.4262 9.38281C23.9679 9.67298 23.6043 10.0906 23.3798 10.5844C23.1553 11.0782 23.0798 11.6267 23.1625 12.1628L25.2487 24.6828C25.3583 25.3386 25.6992 25.9335 26.2097 26.3595C26.7202 26.7856 27.3664 27.0147 28.0312 27.0053H31.2V22.4428C31.2006 21.9265 31.406 21.4315 31.7711 21.0665C32.1362 20.7014 32.6312 20.496 33.1475 20.4953H34.8162C35.3325 20.496 35.8275 20.7014 36.1926 21.0665C36.5576 21.4315 36.763 21.9265 36.7637 22.4428V27.0616H39.9637C40.6287 27.0707 41.2749 26.8413 41.7853 26.415C42.2957 25.9887 42.6366 25.3937 42.7462 24.7378L44.8325 12.2191C44.9242 11.671 44.85 11.1081 44.6195 10.6025C44.389 10.0969 44.0126 9.67171 43.5387 9.38156M28.4187 14.0978H39.5475" stroke="#595959" stroke-width="2" stroke-linecap="round" stroke-linejoin="round"/>
<path d="M7.24165 46.5V36.3182H10.9703C11.6929 36.3182 12.2911 36.4375 12.7651 36.6761C13.2391 36.9115 13.5937 37.2313 13.829 37.6357C14.0643 38.0367 14.182 38.4891 14.182 38.9929C14.182 39.4171 14.1041 39.7751 13.9483 40.0668C13.7926 40.3551 13.5837 40.5871 13.3219 40.7628C13.0634 40.9351 12.7783 41.0611 12.4668 41.1406V41.2401C12.8049 41.2566 13.1346 41.366 13.4561 41.5682C13.781 41.767 14.0494 42.0504 14.2615 42.4183C14.4737 42.7862 14.5797 43.2337 14.5797 43.7607C14.5797 44.281 14.4571 44.7483 14.2118 45.1626C13.9699 45.5736 13.5953 45.9001 13.0882 46.142C12.5811 46.3807 11.9332 46.5 11.1444 46.5H7.24165ZM8.77788 45.1825H10.9952C11.731 45.1825 12.258 45.04 12.5762 44.755C12.8944 44.4699 13.0534 44.1136 13.0534 43.6861C13.0534 43.3646 12.9722 43.0696 12.8098 42.8011C12.6474 42.5327 12.4154 42.3189 12.1138 42.1598C11.8155 42.0007 11.4609 41.9212 11.0499 41.9212H8.77788V45.1825ZM8.77788 40.723H10.8361C11.1808 40.723 11.4907 40.6567 11.7658 40.5241C12.0442 40.3916 12.2646 40.206 12.427 39.9673C12.5927 39.7254 12.6756 39.4403 12.6756 39.1122C12.6756 38.6913 12.5281 38.3383 12.2331 38.0533C11.9382 37.7682 11.4857 37.6257 10.8759 37.6257H8.77788V40.723ZM19.5737 46.6541C18.8213 46.6541 18.1734 46.4934 17.6298 46.1719C17.0895 45.8471 16.6719 45.3913 16.377 44.8047C16.0853 44.2147 15.9395 43.5237 15.9395 42.7315C15.9395 41.9493 16.0853 41.2599 16.377 40.6634C16.6719 40.0668 17.0829 39.6011 17.6099 39.2663C18.1402 38.9316 18.76 38.7642 19.4693 38.7642C19.9002 38.7642 20.3178 38.8355 20.7221 38.978C21.1265 39.1205 21.4894 39.3442 21.8109 39.6491C22.1324 39.9541 22.3859 40.3501 22.5716 40.8374C22.7572 41.3213 22.85 41.9096 22.85 42.6023V43.1293H16.7797V42.0156H21.3933C21.3933 41.6245 21.3137 41.2782 21.1547 40.9766C20.9956 40.6716 20.7718 40.4313 20.4835 40.2557C20.1984 40.08 19.8637 39.9922 19.4792 39.9922C19.0616 39.9922 18.697 40.0949 18.3855 40.3004C18.0772 40.5026 17.8386 40.7678 17.6696 41.0959C17.5038 41.4207 17.421 41.7737 17.421 42.1548V43.0249C17.421 43.5353 17.5105 43.9695 17.6895 44.3274C17.8717 44.6854 18.1253 44.9588 18.4501 45.1477C18.7749 45.3333 19.1544 45.4261 19.5886 45.4261C19.8703 45.4261 20.1272 45.3864 20.3592 45.3068C20.5912 45.224 20.7917 45.1013 20.9608 44.9389C21.1298 44.7765 21.2591 44.576 21.3485 44.3374L22.7555 44.5909C22.6428 45.0052 22.4406 45.3681 22.149 45.6797C21.8606 45.9879 21.4977 46.2282 21.0602 46.4006C20.626 46.5696 20.1305 46.6541 19.5737 46.6541ZM24.4993 46.5V38.8636H25.9361V40.0767H26.0156C26.1548 39.6657 26.4001 39.3426 26.7514 39.1072C27.1061 38.8686 27.5071 38.7493 27.9545 38.7493C28.0473 38.7493 28.1567 38.7526 28.2827 38.7592C28.4119 38.7659 28.513 38.7741 28.5859 38.7841V40.206C28.5263 40.1894 28.4202 40.1712 28.2678 40.1513C28.1153 40.1281 27.9628 40.1165 27.8104 40.1165C27.459 40.1165 27.1458 40.1911 26.8707 40.3402C26.599 40.486 26.3835 40.6899 26.2244 40.9517C26.0653 41.2102 25.9858 41.5052 25.9858 41.8366V46.5H24.4993ZM32.0263 46.669C31.5424 46.669 31.1049 46.5795 30.7138 46.4006C30.3227 46.2183 30.0128 45.9548 29.7841 45.6101C29.5587 45.2654 29.446 44.8428 29.446 44.3423C29.446 43.9115 29.5289 43.5568 29.6946 43.2784C29.8603 43 30.084 42.7796 30.3658 42.6172C30.6475 42.4548 30.9624 42.3321 31.3104 42.2493C31.6584 42.1664 32.013 42.1035 32.3743 42.0604C32.8317 42.0073 33.2029 41.9643 33.4879 41.9311C33.773 41.8946 33.9801 41.8366 34.1094 41.7571C34.2386 41.6776 34.3033 41.5483 34.3033 41.3693V41.3345C34.3033 40.9003 34.1806 40.5639 33.9354 40.3253C33.6934 40.0866 33.3321 39.9673 32.8516 39.9673C32.3511 39.9673 31.9567 40.0784 31.6683 40.3004C31.3833 40.5192 31.1861 40.7628 31.0767 41.0312L29.6797 40.7131C29.8454 40.2491 30.0874 39.8745 30.4055 39.5895C30.727 39.3011 31.0966 39.0923 31.5142 38.9631C31.9318 38.8305 32.371 38.7642 32.8317 38.7642C33.1366 38.7642 33.4598 38.8007 33.8011 38.8736C34.1458 38.9432 34.4673 39.0724 34.7656 39.2614C35.0672 39.4503 35.3142 39.7204 35.5064 40.0717C35.6986 40.4197 35.7947 40.8722 35.7947 41.429V46.5H34.343V45.456H34.2834C34.1873 45.6482 34.0431 45.8371 33.8509 46.0227C33.6586 46.2083 33.4117 46.3625 33.1101 46.4851C32.8085 46.6077 32.4472 46.669 32.0263 46.669ZM32.3494 45.4759C32.7604 45.4759 33.1117 45.3946 33.4034 45.2322C33.6984 45.0698 33.9221 44.8577 34.0746 44.5959C34.2304 44.3307 34.3082 44.0473 34.3082 43.7457V42.7614C34.2552 42.8144 34.1525 42.8641 34 42.9105C33.8509 42.9536 33.6802 42.9917 33.4879 43.0249C33.2957 43.0547 33.1084 43.0829 32.9261 43.1094C32.7438 43.1326 32.5914 43.1525 32.4688 43.169C32.1804 43.2055 31.9169 43.2668 31.6783 43.353C31.4429 43.4392 31.254 43.5634 31.1115 43.7259C30.9723 43.8849 30.9027 44.0971 30.9027 44.3622C30.9027 44.7301 31.0386 45.0085 31.3104 45.1974C31.5821 45.383 31.9285 45.4759 32.3494 45.4759ZM39.2612 41.9659V46.5H37.7747V38.8636H39.2015V40.1065H39.296C39.4717 39.7022 39.7467 39.3774 40.1213 39.1321C40.4991 38.8868 40.9747 38.7642 41.5481 38.7642C42.0685 38.7642 42.5242 38.8736 42.9153 39.0923C43.3064 39.3078 43.6097 39.6293 43.8251 40.0568C44.0405 40.4844 44.1483 41.013 44.1483 41.6428V46.5H42.6618V41.8217C42.6618 41.2682 42.5176 40.8357 42.2292 40.5241C41.9409 40.2093 41.5448 40.0518 41.041 40.0518C40.6963 40.0518 40.3897 40.1264 40.1213 40.2756C39.8561 40.4247 39.6457 40.6435 39.4899 40.9318C39.3374 41.2169 39.2612 41.5616 39.2612 41.9659ZM49.0005 46.6491C48.3841 46.6491 47.8339 46.4917 47.35 46.1768C46.8694 45.8587 46.4915 45.4062 46.2164 44.8196C45.9447 44.2296 45.8088 43.522 45.8088 42.6967C45.8088 41.8714 45.9463 41.1655 46.2214 40.5788C46.4998 39.9922 46.881 39.5431 47.3649 39.2315C47.8488 38.92 48.3973 38.7642 49.0105 38.7642C49.4844 38.7642 49.8656 38.8438 50.1539 39.0028C50.4456 39.1586 50.671 39.3409 50.8301 39.5497C50.9925 39.7585 51.1184 39.9425 51.2079 40.1016H51.2974V36.3182H52.7839V46.5H51.3322V45.3118H51.2079C51.1184 45.4742 50.9892 45.6598 50.8201 45.8686C50.6544 46.0774 50.4257 46.2597 50.1341 46.4155C49.8424 46.5713 49.4645 46.6491 49.0005 46.6491ZM49.3287 45.3814C49.7562 45.3814 50.1175 45.2687 50.4125 45.0433C50.7108 44.8146 50.9361 44.4981 51.0886 44.0938C51.2444 43.6894 51.3223 43.2187 51.3223 42.6818C51.3223 42.1515 51.246 41.6875 51.0936 41.2898C50.9411 40.892 50.7174 40.5821 50.4224 40.3601C50.1274 40.138 49.7628 40.027 49.3287 40.027C48.8812 40.027 48.5083 40.143 48.21 40.375C47.9118 40.607 47.6864 40.9235 47.5339 41.3246C47.3848 41.7256 47.3102 42.178 47.3102 42.6818C47.3102 43.1922 47.3864 43.6513 47.5389 44.0589C47.6913 44.4666 47.9167 44.7898 48.215 45.0284C48.5166 45.2637 48.8878 45.3814 49.3287 45.3814ZM57.1278 46.669C56.6439 46.669 56.2064 46.5795 55.8153 46.4006C55.4242 46.2183 55.1143 45.9548 54.8857 45.6101C54.6603 45.2654 54.5476 44.8428 54.5476 44.3423C54.5476 43.9115 54.6304 43.5568 54.7962 43.2784C54.9619 43 55.1856 42.7796 55.4673 42.6172C55.7491 42.4548 56.0639 42.3321 56.4119 42.2493C56.7599 42.1664 57.1146 42.1035 57.4759 42.0604C57.9332 42.0073 58.3045 41.9643 58.5895 41.9311C58.8745 41.8946 59.0817 41.8366 59.2109 41.7571C59.3402 41.6776 59.4048 41.5483 59.4048 41.3693V41.3345C59.4048 40.9003 59.2822 40.5639 59.0369 40.3253C58.795 40.0866 58.4337 39.9673 57.9531 39.9673C57.4527 39.9673 57.0582 40.0784 56.7699 40.3004C56.4848 40.5192 56.2876 40.7628 56.1783 41.0312L54.7812 40.7131C54.947 40.2491 55.1889 39.8745 55.5071 39.5895C55.8286 39.3011 56.1982 39.0923 56.6158 38.9631C57.0334 38.8305 57.4725 38.7642 57.9332 38.7642C58.2382 38.7642 58.5613 38.8007 58.9027 38.8736C59.2474 38.9432 59.5689 39.0724 59.8672 39.2614C60.1688 39.4503 60.4157 39.7204 60.608 40.0717C60.8002 40.4197 60.8963 40.8722 60.8963 41.429V46.5H59.4446V45.456H59.3849C59.2888 45.6482 59.1446 45.8371 58.9524 46.0227C58.7602 46.2083 58.5133 46.3625 58.2116 46.4851C57.91 46.6077 57.5488 46.669 57.1278 46.669ZM57.451 45.4759C57.862 45.4759 58.2133 45.3946 58.505 45.2322C58.8 45.0698 59.0237 44.8577 59.1761 44.5959C59.3319 44.3307 59.4098 44.0473 59.4098 43.7457V42.7614C59.3568 42.8144 59.254 42.8641 59.1016 42.9105C58.9524 42.9536 58.7817 42.9917 58.5895 43.0249C58.3973 43.0547 58.21 43.0829 58.0277 43.1094C57.8454 43.1326 57.6929 43.1525 57.5703 43.169C57.282 43.2055 57.0185 43.2668 56.7798 43.353C56.5445 43.4392 56.3556 43.5634 56.2131 43.7259C56.0739 43.8849 56.0043 44.0971 56.0043 44.3622C56.0043 44.7301 56.1402 45.0085 56.4119 45.1974C56.6837 45.383 57.0301 45.4759 57.451 45.4759Z" fill="#595959"/>
</svg>
