<svg width="64" height="64" viewBox="0 0 64 64" fill="none" xmlns="http://www.w3.org/2000/svg">
<path d="M23.8084 49.0604C14.2124 51.7414 29.6469 57.2799 41.8659 52.0449C39.8644 51.2669 38.4289 50.3694 38.4289 50.3694C32.9804 51.3994 30.4529 51.4804 25.5069 50.9154C21.4249 50.4479 23.8084 49.0604 23.8084 49.0604ZM40.4029 43.8304C33.1809 45.2199 29.0094 45.1754 23.7259 44.6304C19.6404 44.2079 22.3149 42.2279 22.3149 42.2279C11.7464 45.7359 28.1984 49.7164 42.9694 45.3959C41.3994 44.8429 40.4029 43.8304 40.4029 43.8304ZM46.0624 13.5429C46.0629 13.5429 24.6969 18.8774 34.9009 30.6364C37.9129 34.1039 34.1109 37.2214 34.1109 37.2214C34.1109 37.2214 41.7554 33.2759 38.2454 28.3329C34.9659 23.7254 32.4519 21.4364 46.0624 13.5429ZM51.0614 54.1149C51.0614 54.1149 52.8259 55.5699 49.1174 56.6944C42.0664 58.8304 19.7644 59.4744 13.5699 56.7799C11.3449 55.8109 15.5194 54.4674 16.8329 54.1839C18.2024 53.8874 18.9844 53.9414 18.9844 53.9414C16.5084 52.1979 2.97793 57.3664 12.1134 58.8489C37.0239 62.8869 57.5219 57.0304 51.0614 54.1149ZM42.4999 38.9484C43.6974 38.1314 45.3514 37.4219 45.3514 37.4219C45.3514 37.4219 40.6394 38.2644 35.9449 38.6589C30.1979 39.1409 24.0334 39.2359 20.9389 38.8219C13.6129 37.8424 24.9554 35.1479 24.9554 35.1479C24.9554 35.1479 20.5494 34.8499 15.1334 37.4699C8.72743 40.5674 30.9789 41.9794 42.4999 38.9484ZM45.3044 46.5209C45.2504 46.6659 45.0704 46.8289 45.0704 46.8289C60.7069 42.7184 54.9579 32.3394 47.4814 34.9664C46.8254 35.1984 46.4814 35.7379 46.4814 35.7379C46.4814 35.7379 46.8959 35.5709 47.8204 35.3779C51.5999 34.5904 57.0149 40.4374 45.3044 46.5209ZM32.0904 35.0349C29.7834 29.8204 21.9604 25.2584 32.0939 17.2554C44.7294 7.28194 38.2459 0.793945 38.2459 0.793945C40.8609 11.0979 29.0204 14.2104 24.7464 20.6274C21.8359 24.9999 26.1749 29.6984 32.0904 35.0349ZM45.7274 60.9089C36.1339 62.7149 24.3004 62.5044 17.2839 61.3459C17.2839 61.3459 18.7209 62.5359 26.1069 63.0114C37.3449 63.7299 54.6069 62.6114 55.0149 57.2934C55.0154 57.2934 54.2299 59.3094 45.7274 60.9089Z" fill="black"/>
</svg>
