<svg width="68" height="50" viewBox="0 0 68 50" fill="none" xmlns="http://www.w3.org/2000/svg">
<path d="M31.3961 9.34495C31.613 9.56624 31.7346 9.86379 31.7346 10.1737C31.7346 10.4836 31.613 10.7812 31.3961 11.0024L29.5023 12.8962C29.281 13.1132 28.9835 13.2347 28.6736 13.2347C28.3637 13.2347 28.0661 13.1132 27.8448 12.8962L24.6598 9.71245C24.0411 9.09495 23.0011 9.2962 22.8523 10.1574C22.658 11.2846 22.7387 12.4421 23.0877 13.5314C23.4367 14.6207 24.0436 15.6096 24.8568 16.4139C25.67 17.2183 26.6655 17.8144 27.7585 18.1514C28.8515 18.4885 30.0098 18.5566 31.1348 18.3499C32.1598 18.1624 33.2686 18.3224 34.0048 19.0574L40.9623 26.0162C41.1938 26.2572 41.4711 26.4496 41.7779 26.5821C42.0847 26.7146 42.4148 26.7845 42.749 26.7879C43.0831 26.7912 43.4146 26.7279 43.724 26.6015C44.0334 26.4752 44.3144 26.2884 44.5507 26.0521C44.787 25.8158 44.9738 25.5347 45.1002 25.2254C45.2265 24.916 45.2898 24.5845 45.2865 24.2504C45.2832 23.9162 45.2132 23.5861 45.0807 23.2793C44.9482 22.9725 44.7558 22.6952 44.5148 22.4637L37.5561 15.5062C36.8211 14.7699 36.6611 13.6599 36.8486 12.6362C37.0546 11.5113 36.9861 10.3533 36.6488 9.26052C36.3115 8.16776 35.7155 7.17257 34.9112 6.3595C34.107 5.54643 33.1184 4.93951 32.0294 4.59031C30.9404 4.24111 29.7832 4.15994 28.6561 4.3537C27.7948 4.5037 27.5936 5.54245 28.2111 6.1612L31.3961 9.34495Z" stroke="#595959" stroke-width="2" stroke-linecap="round" stroke-linejoin="round"/>
<path d="M22.8002 46.5V36.3182H24.3365V45.1776H28.9501V46.5H22.8002ZM32.8056 46.669C32.3217 46.669 31.8842 46.5795 31.4931 46.4006C31.102 46.2183 30.7921 45.9548 30.5634 45.6101C30.338 45.2654 30.2253 44.8428 30.2253 44.3423C30.2253 43.9115 30.3082 43.5568 30.4739 43.2784C30.6396 43 30.8633 42.7796 31.1451 42.6172C31.4268 42.4548 31.7417 42.3321 32.0897 42.2493C32.4377 42.1664 32.7923 42.1035 33.1536 42.0604C33.611 42.0073 33.9822 41.9643 34.2672 41.9311C34.5523 41.8946 34.7594 41.8366 34.8887 41.7571C35.0179 41.6776 35.0826 41.5483 35.0826 41.3693V41.3345C35.0826 40.9003 34.9599 40.5639 34.7147 40.3253C34.4727 40.0866 34.1114 39.9673 33.6309 39.9673C33.1304 39.9673 32.736 40.0784 32.4476 40.3004C32.1626 40.5192 31.9654 40.7628 31.856 41.0312L30.459 40.7131C30.6247 40.2491 30.8667 39.8745 31.1848 39.5895C31.5063 39.3011 31.8759 39.0923 32.2935 38.9631C32.7111 38.8305 33.1503 38.7642 33.611 38.7642C33.9159 38.7642 34.2391 38.8007 34.5804 38.8736C34.9251 38.9432 35.2466 39.0724 35.5449 39.2614C35.8465 39.4503 36.0935 39.7204 36.2857 40.0717C36.4779 40.4197 36.574 40.8722 36.574 41.429V46.5H35.1223V45.456H35.0627C34.9666 45.6482 34.8224 45.8371 34.6301 46.0227C34.4379 46.2083 34.191 46.3625 33.8894 46.4851C33.5878 46.6077 33.2265 46.669 32.8056 46.669ZM33.1287 45.4759C33.5397 45.4759 33.891 45.3946 34.1827 45.2322C34.4777 45.0698 34.7014 44.8577 34.8539 44.5959C35.0096 44.3307 35.0875 44.0473 35.0875 43.7457V42.7614C35.0345 42.8144 34.9318 42.8641 34.7793 42.9105C34.6301 42.9536 34.4595 42.9917 34.2672 43.0249C34.075 43.0547 33.8877 43.0829 33.7054 43.1094C33.5231 43.1326 33.3707 43.1525 33.248 43.169C32.9597 43.2055 32.6962 43.2668 32.4576 43.353C32.2222 43.4392 32.0333 43.5634 31.8908 43.7259C31.7516 43.8849 31.682 44.0971 31.682 44.3622C31.682 44.7301 31.8179 45.0085 32.0897 45.1974C32.3614 45.383 32.7078 45.4759 33.1287 45.4759ZM38.6733 46.5V36.3182H40.1598V40.1016H40.2493C40.3355 39.9425 40.4598 39.7585 40.6222 39.5497C40.7846 39.3409 41.0099 39.1586 41.2983 39.0028C41.5866 38.8438 41.9678 38.7642 42.4418 38.7642C43.0582 38.7642 43.6084 38.92 44.0923 39.2315C44.5762 39.5431 44.9557 39.9922 45.2308 40.5788C45.5092 41.1655 45.6484 41.8714 45.6484 42.6967C45.6484 43.522 45.5109 44.2296 45.2358 44.8196C44.9607 45.4062 44.5829 45.8587 44.1023 46.1768C43.6217 46.4917 43.0732 46.6491 42.4567 46.6491C41.9927 46.6491 41.6132 46.5713 41.3182 46.4155C41.0265 46.2597 40.7978 46.0774 40.6321 45.8686C40.4664 45.6598 40.3388 45.4742 40.2493 45.3118H40.125V46.5H38.6733ZM40.13 42.6818C40.13 43.2187 40.2079 43.6894 40.3636 44.0938C40.5194 44.4981 40.7448 44.8146 41.0398 45.0433C41.3348 45.2687 41.696 45.3814 42.1236 45.3814C42.5677 45.3814 42.9389 45.2637 43.2372 45.0284C43.5355 44.7898 43.7609 44.4666 43.9134 44.0589C44.0691 43.6513 44.147 43.1922 44.147 42.6818C44.147 42.178 44.0708 41.7256 43.9183 41.3246C43.7692 40.9235 43.5438 40.607 43.2422 40.375C42.9439 40.143 42.571 40.027 42.1236 40.027C41.6927 40.027 41.3281 40.138 41.0298 40.3601C40.7348 40.5821 40.5111 40.892 40.3587 41.2898C40.2062 41.6875 40.13 42.1515 40.13 42.6818Z" fill="#595959"/>
</svg>
