<svg width="64" height="61" viewBox="0 0 64 61" fill="none" xmlns="http://www.w3.org/2000/svg">
<path d="M16.0003 5.33301H40.0003C41.4148 5.33301 42.7714 5.89491 43.7716 6.8951C44.7718 7.8953 45.3337 9.25185 45.3337 10.6663V15.9997H40.0003V10.6663H16.0003V53.333H40.0003V47.9997H45.3337V53.333C45.3337 54.7475 44.7718 56.104 43.7716 57.1042C42.7714 58.1044 41.4148 58.6663 40.0003 58.6663H16.0003C14.5858 58.6663 13.2293 58.1044 12.2291 57.1042C11.2289 56.104 10.667 54.7475 10.667 53.333V10.6663C10.667 9.25185 11.2289 7.8953 12.2291 6.8951C13.2293 5.89491 14.5858 5.33301 16.0003 5.33301Z" fill="black"/>
<path d="M42.9067 41.5737L46.6667 45.3337L60 32.0003L46.6667 18.667L42.9067 22.427L49.7867 29.3337H24V34.667H49.7867L42.9067 41.5737Z" fill="black"/>
</svg>
