<svg width="32" height="32" viewBox="0 0 32 32" fill="none" xmlns="http://www.w3.org/2000/svg">
<path d="M11.2838 16.2798C11.2838 15.6718 10.8614 15.3086 10.1166 15.3086C9.81262 15.3086 9.60702 15.3382 9.49902 15.367V17.3198C9.62702 17.3486 9.78382 17.359 9.99902 17.359C10.7934 17.359 11.2838 16.9566 11.2838 16.2798ZM15.8966 15.3278C15.563 15.3278 15.347 15.3574 15.219 15.387V19.7134C15.347 19.743 15.5526 19.743 15.739 19.743C17.0926 19.7526 17.9758 19.007 17.9758 17.4278C17.9862 16.0542 17.1814 15.3278 15.8966 15.3278Z" fill="black"/>
<path d="M24.7344 12.7866H24.192V10.1698L24.1872 10.1202C24.1877 10.015 24.1505 9.91312 24.0824 9.83299L19.728 4.86019L19.7248 4.85699C19.6694 4.7971 19.599 4.75318 19.5208 4.72979L19.4968 4.72179C19.4636 4.71318 19.4295 4.70888 19.3952 4.70899H8.6936C8.2048 4.70899 7.808 5.10659 7.808 5.59459V12.7866H7.2656C6.5664 12.7866 6 13.353 6 14.0522V20.6346C6 21.333 6.5672 21.9002 7.2656 21.9002H7.808V26.4066C7.808 26.8946 8.2048 27.2922 8.6936 27.2922H23.3064C23.7944 27.2922 24.192 26.8946 24.192 26.4066V21.9002H24.7344C25.4336 21.9002 26 21.333 26 20.6346V14.0522C26 13.353 25.4328 12.7866 24.7344 12.7866ZM8.6936 5.59459H18.952V10.1258C18.952 10.3706 19.1504 10.5682 19.3952 10.5682H23.3072V12.7866H8.6936V5.59459ZM19.5656 17.3786C19.5656 18.6442 19.1048 19.5178 18.4656 20.057C17.7696 20.6354 16.7104 20.9106 15.4152 20.9106C14.64 20.9106 14.0912 20.861 13.7176 20.813V14.3178C14.2672 14.2298 14.9832 14.181 15.7392 14.181C16.9944 14.181 17.8088 14.4066 18.4464 14.8874C19.1336 15.397 19.5656 16.2114 19.5656 17.3786ZM8.0168 20.8426V14.3178C8.4776 14.2394 9.1256 14.181 10.0376 14.181C10.96 14.181 11.6176 14.3578 12.0584 14.7106C12.48 15.0442 12.764 15.5938 12.764 16.241C12.764 16.889 12.5488 17.4378 12.156 17.8106C11.6456 18.2914 10.8904 18.5074 10.0072 18.5074C9.8112 18.5074 9.6344 18.4978 9.4976 18.4778V20.8426H8.0168ZM23.3064 26.1666H8.6936V21.9002H23.3064V26.1666ZM24.5896 15.4562H22.048V16.9674H24.4224V18.1842H22.048V20.8426H20.548V14.2298H24.5896V15.4562Z" fill="black"/>
</svg>
