<svg width="68" height="50" viewBox="0 0 68 50" fill="none" xmlns="http://www.w3.org/2000/svg">
<path d="M31.5 20.5H36.5V28H31.5V20.5Z" fill="#595959"/>
<path d="M34 21.75H21.5V4.25H46.5V21.75H34Z" stroke="#595959" stroke-width="2" stroke-linecap="round" stroke-linejoin="round"/>
<path d="M37.75 26.75H34H30.25" stroke="#595959" stroke-width="2" stroke-linecap="round" stroke-linejoin="round"/>
<path d="M1.51314 46.5V36.3182H5.1424C5.93454 36.3182 6.59079 36.4624 7.11115 36.7507C7.63151 37.0391 8.02095 37.4335 8.27947 37.9339C8.538 38.4311 8.66726 38.9912 8.66726 39.6143C8.66726 40.2408 8.53634 40.8042 8.2745 41.3047C8.01598 41.8018 7.62488 42.1963 7.10121 42.4879C6.58085 42.7763 5.92625 42.9205 5.13743 42.9205H2.64169V41.6179H4.99822C5.4987 41.6179 5.90471 41.5317 6.21626 41.3594C6.52782 41.1837 6.75651 40.9451 6.90234 40.6435C7.04818 40.3419 7.12109 39.9988 7.12109 39.6143C7.12109 39.2299 7.04818 38.8885 6.90234 38.5902C6.75651 38.2919 6.52616 38.0582 6.21129 37.8892C5.89974 37.7202 5.48875 37.6357 4.97834 37.6357H3.04936V46.5H1.51314ZM10.3489 46.5V38.8636H11.7857V40.0767H11.8652C12.0044 39.6657 12.2497 39.3426 12.601 39.1072C12.9557 38.8686 13.3567 38.7493 13.8042 38.7493C13.897 38.7493 14.0063 38.7526 14.1323 38.7592C14.2615 38.7659 14.3626 38.7741 14.4355 38.7841V40.206C14.3759 40.1894 14.2698 40.1712 14.1174 40.1513C13.9649 40.1281 13.8124 40.1165 13.66 40.1165C13.3087 40.1165 12.9954 40.1911 12.7203 40.3402C12.4486 40.486 12.2331 40.6899 12.074 40.9517C11.915 41.2102 11.8354 41.5052 11.8354 41.8366V46.5H10.3489ZM17.8759 46.669C17.392 46.669 16.9545 46.5795 16.5634 46.4006C16.1723 46.2183 15.8624 45.9548 15.6337 45.6101C15.4083 45.2654 15.2956 44.8428 15.2956 44.3423C15.2956 43.9115 15.3785 43.5568 15.5442 43.2784C15.7099 43 15.9337 42.7796 16.2154 42.6172C16.4971 42.4548 16.812 42.3321 17.16 42.2493C17.508 42.1664 17.8626 42.1035 18.2239 42.0604C18.6813 42.0073 19.0525 41.9643 19.3375 41.9311C19.6226 41.8946 19.8297 41.8366 19.959 41.7571C20.0882 41.6776 20.1529 41.5483 20.1529 41.3693V41.3345C20.1529 40.9003 20.0302 40.5639 19.785 40.3253C19.543 40.0866 19.1818 39.9673 18.7012 39.9673C18.2007 39.9673 17.8063 40.0784 17.5179 40.3004C17.2329 40.5192 17.0357 40.7628 16.9263 41.0312L15.5293 40.7131C15.695 40.2491 15.937 39.8745 16.2551 39.5895C16.5766 39.3011 16.9462 39.0923 17.3638 38.9631C17.7814 38.8305 18.2206 38.7642 18.6813 38.7642C18.9862 38.7642 19.3094 38.8007 19.6507 38.8736C19.9954 38.9432 20.3169 39.0724 20.6152 39.2614C20.9168 39.4503 21.1638 39.7204 21.356 40.0717C21.5482 40.4197 21.6444 40.8722 21.6444 41.429V46.5H20.1926V45.456H20.133C20.0369 45.6482 19.8927 45.8371 19.7005 46.0227C19.5082 46.2083 19.2613 46.3625 18.9597 46.4851C18.6581 46.6077 18.2968 46.669 17.8759 46.669ZM18.199 45.4759C18.61 45.4759 18.9614 45.3946 19.253 45.2322C19.548 45.0698 19.7717 44.8577 19.9242 44.5959C20.08 44.3307 20.1578 44.0473 20.1578 43.7457V42.7614C20.1048 42.8144 20.0021 42.8641 19.8496 42.9105C19.7005 42.9536 19.5298 42.9917 19.3375 43.0249C19.1453 43.0547 18.958 43.0829 18.7757 43.1094C18.5935 43.1326 18.441 43.1525 18.3184 43.169C18.03 43.2055 17.7665 43.2668 17.5279 43.353C17.2926 43.4392 17.1036 43.5634 16.9611 43.7259C16.8219 43.8849 16.7523 44.0971 16.7523 44.3622C16.7523 44.7301 16.8882 45.0085 17.16 45.1974C17.4318 45.383 17.7781 45.4759 18.199 45.4759ZM24.9915 43.9098L24.9815 42.0952H25.2401L28.2827 38.8636H30.0625L26.5923 42.5426H26.3587L24.9915 43.9098ZM23.6243 46.5V36.3182H25.1108V46.5H23.6243ZM28.4467 46.5L25.7124 42.8707L26.7365 41.8317L30.2713 46.5H28.4467ZM34.9819 38.8636V40.0568H30.8107V38.8636H34.9819ZM31.9293 37.0341H33.4158V44.2578C33.4158 44.5462 33.4589 44.7633 33.5451 44.9091C33.6313 45.0516 33.7423 45.1494 33.8782 45.2024C34.0174 45.2521 34.1682 45.277 34.3306 45.277C34.4499 45.277 34.5543 45.2687 34.6438 45.2521C34.7333 45.2356 34.8029 45.2223 34.8526 45.2124L35.1211 46.4403C35.0349 46.4735 34.9123 46.5066 34.7532 46.5398C34.5941 46.5762 34.3952 46.5961 34.1566 46.5994C33.7655 46.6061 33.4009 46.5365 33.0629 46.3906C32.7248 46.2448 32.4513 46.0194 32.2425 45.7145C32.0337 45.4096 31.9293 45.0268 31.9293 44.5661V37.0341ZM36.6262 46.5V38.8636H38.1127V46.5H36.6262ZM37.377 37.6854C37.1184 37.6854 36.8964 37.5992 36.7108 37.4268C36.5285 37.2512 36.4373 37.0424 36.4373 36.8004C36.4373 36.5552 36.5285 36.3464 36.7108 36.174C36.8964 35.9983 37.1184 35.9105 37.377 35.9105C37.6355 35.9105 37.8559 35.9983 38.0382 36.174C38.2238 36.3464 38.3166 36.5552 38.3166 36.8004C38.3166 37.0424 38.2238 37.2512 38.0382 37.4268C37.8559 37.5992 37.6355 37.6854 37.377 37.6854ZM41.4798 43.9098L41.4698 42.0952H41.7283L44.771 38.8636H46.5508L43.0806 42.5426H42.8469L41.4798 43.9098ZM40.1126 46.5V36.3182H41.5991V46.5H40.1126ZM44.935 46.5L42.2006 42.8707L43.2248 41.8317L46.7596 46.5H44.935ZM52.7429 43.3331V38.8636H54.2344V46.5H52.7727V45.1776H52.6932C52.5175 45.5852 52.2358 45.925 51.848 46.1967C51.4635 46.4652 50.9846 46.5994 50.4112 46.5994C49.9207 46.5994 49.4865 46.4917 49.1087 46.2763C48.7341 46.0575 48.4392 45.7344 48.2237 45.3068C48.0116 44.8793 47.9055 44.3506 47.9055 43.7209V38.8636H49.392V43.5419C49.392 44.0623 49.5362 44.4766 49.8246 44.7848C50.1129 45.093 50.4875 45.2472 50.9482 45.2472C51.2266 45.2472 51.5033 45.1776 51.7784 45.0384C52.0568 44.8991 52.2872 44.6887 52.4695 44.407C52.6551 44.1252 52.7462 43.7673 52.7429 43.3331ZM56.2317 46.5V38.8636H57.6586V40.1065H57.753C57.9121 39.6856 58.1723 39.3575 58.5336 39.1222C58.8948 38.8835 59.3274 38.7642 59.8311 38.7642C60.3416 38.7642 60.7691 38.8835 61.1138 39.1222C61.4618 39.3608 61.7187 39.6889 61.8844 40.1065H61.964C62.1462 39.6989 62.4363 39.3741 62.834 39.1321C63.2317 38.8868 63.7057 38.7642 64.2559 38.7642C64.9486 38.7642 65.5137 38.9813 65.9512 39.4155C66.392 39.8497 66.6124 40.5043 66.6124 41.3793V46.5H65.1259V41.5185C65.1259 41.0014 64.985 40.6269 64.7033 40.3949C64.4216 40.1629 64.0852 40.0469 63.6941 40.0469C63.2102 40.0469 62.834 40.196 62.5655 40.4943C62.2971 40.7893 62.1628 41.1688 62.1628 41.6328V46.5H60.6813V41.424C60.6813 41.0097 60.552 40.6766 60.2935 40.4247C60.035 40.1728 59.6986 40.0469 59.2843 40.0469C59.0025 40.0469 58.7424 40.1214 58.5037 40.2706C58.2684 40.4164 58.0778 40.6203 57.932 40.8821C57.7895 41.1439 57.7182 41.4472 57.7182 41.7919V46.5H56.2317Z" fill="#595959"/>
</svg>
