<svg width="68" height="50" viewBox="0 0 68 50" fill="none" xmlns="http://www.w3.org/2000/svg">
<path fill-rule="evenodd" clip-rule="evenodd" d="M39 11.75C39 13.0761 38.4732 14.3479 37.5355 15.2855C36.5979 16.2232 35.3261 16.75 34 16.75C32.6739 16.75 31.4021 16.2232 30.4645 15.2855C29.5268 14.3479 29 13.0761 29 11.75C29 10.4239 29.5268 9.15215 30.4645 8.21447C31.4021 7.27678 32.6739 6.75 34 6.75C35.3261 6.75 36.5979 7.27678 37.5355 8.21447C38.4732 9.15215 39 10.4239 39 11.75ZM36.5 11.75C36.5 12.413 36.2366 13.0489 35.7678 13.5178C35.2989 13.9866 34.663 14.25 34 14.25C33.337 14.25 32.7011 13.9866 32.2322 13.5178C31.7634 13.0489 31.5 12.413 31.5 11.75C31.5 11.087 31.7634 10.4511 32.2322 9.98223C32.7011 9.51339 33.337 9.25 34 9.25C34.663 9.25 35.2989 9.51339 35.7678 9.98223C36.2366 10.4511 36.5 11.087 36.5 11.75Z" fill="#595959"/>
<path fill-rule="evenodd" clip-rule="evenodd" d="M34 1.75C26.4062 1.75 20.25 7.90625 20.25 15.5C20.25 23.0937 26.4062 29.25 34 29.25C41.5937 29.25 47.75 23.0937 47.75 15.5C47.75 7.90625 41.5937 1.75 34 1.75ZM22.75 15.5C22.75 18.1125 23.6412 20.5175 25.135 22.4275C26.1843 21.0502 27.5377 19.9339 29.0895 19.1659C30.6414 18.3979 32.3497 17.9989 34.0812 18C35.7905 17.998 37.4776 18.3864 39.0139 19.1355C40.5502 19.8846 41.8952 20.9746 42.9462 22.3225C44.0293 20.902 44.7585 19.244 45.0736 17.4857C45.3887 15.7275 45.2805 13.9194 44.7581 12.2112C44.2357 10.503 43.314 8.94381 42.0694 7.66255C40.8247 6.38128 39.2928 5.41482 37.6005 4.84314C35.9081 4.27145 34.104 4.11096 32.3373 4.37497C30.5707 4.63897 28.8922 5.31986 27.441 6.36132C25.9897 7.40277 24.8073 8.77484 23.9915 10.364C23.1758 11.9532 22.7502 13.7137 22.75 15.5ZM34 26.75C31.4174 26.7542 28.9127 25.8657 26.91 24.235C27.716 23.0808 28.789 22.1384 30.0376 21.4881C31.2862 20.8378 32.6734 20.4988 34.0812 20.5C35.4715 20.4988 36.8419 20.8293 38.0787 21.4641C39.3155 22.099 40.383 23.0197 41.1925 24.15C39.1743 25.8338 36.6283 26.7541 34 26.75Z" fill="#595959"/>
<path d="M17.8032 46.5V36.3182H21.4324C22.2246 36.3182 22.8808 36.4624 23.4012 36.7507C23.9215 37.0391 24.311 37.4335 24.5695 37.9339C24.828 38.4311 24.9573 38.9912 24.9573 39.6143C24.9573 40.2408 24.8264 40.8042 24.5645 41.3047C24.306 41.8018 23.9149 42.1963 23.3912 42.4879C22.8709 42.7763 22.2163 42.9205 21.4275 42.9205H18.9317V41.6179H21.2883C21.7887 41.6179 22.1948 41.5317 22.5063 41.3594C22.8179 41.1837 23.0465 40.9451 23.1924 40.6435C23.3382 40.3419 23.4111 39.9988 23.4111 39.6143C23.4111 39.2299 23.3382 38.8885 23.1924 38.5902C23.0465 38.2919 22.8162 38.0582 22.5013 37.8892C22.1898 37.7202 21.7788 37.6357 21.2684 37.6357H19.3394V46.5H17.8032ZM26.6389 46.5V38.8636H28.0757V40.0767H28.1553C28.2945 39.6657 28.5397 39.3426 28.8911 39.1072C29.2457 38.8686 29.6468 38.7493 30.0942 38.7493C30.187 38.7493 30.2964 38.7526 30.4223 38.7592C30.5516 38.7659 30.6527 38.7741 30.7256 38.7841V40.206C30.6659 40.1894 30.5599 40.1712 30.4074 40.1513C30.2549 40.1281 30.1025 40.1165 29.95 40.1165C29.5987 40.1165 29.2855 40.1911 29.0104 40.3402C28.7386 40.486 28.5232 40.6899 28.3641 40.9517C28.205 41.2102 28.1254 41.5052 28.1254 41.8366V46.5H26.6389ZM34.9552 46.6541C34.2393 46.6541 33.6145 46.4901 33.0809 46.1619C32.5473 45.8338 32.133 45.3748 31.838 44.7848C31.543 44.1948 31.3955 43.5054 31.3955 42.7166C31.3955 41.9245 31.543 41.2318 31.838 40.6385C32.133 40.0452 32.5473 39.5845 33.0809 39.2564C33.6145 38.9283 34.2393 38.7642 34.9552 38.7642C35.6711 38.7642 36.2958 38.9283 36.8295 39.2564C37.3631 39.5845 37.7774 40.0452 38.0724 40.6385C38.3673 41.2318 38.5148 41.9245 38.5148 42.7166C38.5148 43.5054 38.3673 44.1948 38.0724 44.7848C37.7774 45.3748 37.3631 45.8338 36.8295 46.1619C36.2958 46.4901 35.6711 46.6541 34.9552 46.6541ZM34.9601 45.4062C35.4242 45.4062 35.8086 45.2836 36.1135 45.0384C36.4185 44.7931 36.6439 44.4666 36.7897 44.0589C36.9388 43.6513 37.0134 43.2022 37.0134 42.7116C37.0134 42.2244 36.9388 41.777 36.7897 41.3693C36.6439 40.9583 36.4185 40.6286 36.1135 40.38C35.8086 40.1314 35.4242 40.0071 34.9601 40.0071C34.4928 40.0071 34.105 40.1314 33.7968 40.38C33.4919 40.6286 33.2648 40.9583 33.1157 41.3693C32.9698 41.777 32.8969 42.2244 32.8969 42.7116C32.8969 43.2022 32.9698 43.6513 33.1157 44.0589C33.2648 44.4666 33.4919 44.7931 33.7968 45.0384C34.105 45.2836 34.4928 45.4062 34.9601 45.4062ZM43.8083 38.8636V40.0568H39.493V38.8636H43.8083ZM40.6762 46.5V37.9787C40.6762 37.5014 40.7806 37.1053 40.9894 36.7905C41.1982 36.4723 41.475 36.2353 41.8197 36.0795C42.1644 35.9205 42.5389 35.8409 42.9433 35.8409C43.2416 35.8409 43.4968 35.8658 43.7089 35.9155C43.921 35.9619 44.0785 36.005 44.1812 36.0447L43.8332 37.2479C43.7636 37.228 43.6741 37.2048 43.5647 37.1783C43.4553 37.1484 43.3228 37.1335 43.167 37.1335C42.8057 37.1335 42.5472 37.223 42.3914 37.402C42.239 37.581 42.1627 37.8395 42.1627 38.1776V46.5H40.6762ZM45.3421 46.5V38.8636H46.8286V46.5H45.3421ZM46.0928 37.6854C45.8343 37.6854 45.6122 37.5992 45.4266 37.4268C45.2443 37.2512 45.1531 37.0424 45.1531 36.8004C45.1531 36.5552 45.2443 36.3464 45.4266 36.174C45.6122 35.9983 45.8343 35.9105 46.0928 35.9105C46.3513 35.9105 46.5717 35.9983 46.754 36.174C46.9396 36.3464 47.0324 36.5552 47.0324 36.8004C47.0324 37.0424 46.9396 37.2512 46.754 37.4268C46.5717 37.5992 46.3513 37.6854 46.0928 37.6854ZM50.3149 36.3182V46.5H48.8284V36.3182H50.3149Z" fill="#595959"/>
</svg>
