<svg width="68" height="50" viewBox="0 0 68 50" fill="none" xmlns="http://www.w3.org/2000/svg">
<path d="M34 3C40.9037 3 46.5 8.59625 46.5 15.5C46.5 22.4038 40.9037 28 34 28C27.0963 28 21.5 22.4038 21.5 15.5H24C24.0003 17.8943 24.8596 20.2091 26.4219 22.0236C27.9841 23.838 30.1455 25.0317 32.5132 25.3877C34.8809 25.7437 37.2978 25.2383 39.3245 23.9635C41.3512 22.6886 42.8532 20.7289 43.5576 18.4405C44.2619 16.1521 44.1217 13.6869 43.1626 11.4931C42.2035 9.29923 40.4891 7.52234 38.3309 6.48537C36.1728 5.4484 33.7142 5.22018 31.4021 5.8422C29.09 6.46422 27.0778 7.89519 25.7313 9.875H29V12.375H21.5V4.875H24V8C25.1637 6.44683 26.6733 5.18626 28.4092 4.31834C30.145 3.45042 32.0593 2.99903 34 3ZM35.25 9.25V14.9813L39.3037 19.035L37.535 20.8038L32.75 16.0163V9.25H35.25Z" fill="#25587D"/>
<path d="M7.72576 46.5V36.3182H11.7428C12.5117 36.3182 13.168 36.4557 13.7116 36.7308C14.2584 37.0026 14.6744 37.3887 14.9594 37.8892C15.2478 38.3864 15.392 38.9714 15.392 39.6442C15.392 40.3203 15.2461 40.902 14.9545 41.3892C14.6628 41.8731 14.2402 42.2443 13.6867 42.5028C13.1365 42.7614 12.4703 42.8906 11.6881 42.8906H8.99849V41.1605H11.3401C11.7511 41.1605 12.0925 41.1042 12.3643 40.9915C12.636 40.8788 12.8382 40.7098 12.9708 40.4844C13.1067 40.259 13.1746 39.9789 13.1746 39.6442C13.1746 39.3061 13.1067 39.0211 12.9708 38.7891C12.8382 38.5571 12.6344 38.3814 12.3593 38.2621C12.0875 38.1394 11.7445 38.0781 11.3302 38.0781H9.87846V46.5H7.72576ZM13.2243 41.8665L15.7549 46.5H13.3785L10.9026 41.8665H13.2243ZM16.8735 46.5V38.8636H18.9914V46.5H16.8735ZM17.9374 37.8793C17.6225 37.8793 17.3524 37.7749 17.127 37.5661C16.905 37.3539 16.7939 37.1004 16.7939 36.8054C16.7939 36.5137 16.905 36.2635 17.127 36.0547C17.3524 35.8426 17.6225 35.7365 17.9374 35.7365C18.2523 35.7365 18.5207 35.8426 18.7428 36.0547C18.9682 36.2635 19.0809 36.5137 19.0809 36.8054C19.0809 37.1004 18.9682 37.3539 18.7428 37.5661C18.5207 37.7749 18.2523 37.8793 17.9374 37.8793ZM22.1943 46.5L20.1162 38.8636H22.259L23.4422 43.9943H23.5118L24.7448 38.8636H26.8477L28.1006 43.9645H28.1652L29.3286 38.8636H31.4664L29.3932 46.5H27.151L25.8385 41.6974H25.7441L24.4316 46.5H22.1943ZM34.7737 46.6442C34.2865 46.6442 33.8523 46.5597 33.4711 46.3906C33.09 46.2183 32.7884 45.9647 32.5663 45.63C32.3476 45.2919 32.2382 44.871 32.2382 44.3672C32.2382 43.9429 32.3161 43.5866 32.4719 43.2983C32.6276 43.0099 32.8398 42.7779 33.1082 42.6023C33.3767 42.4266 33.6816 42.294 34.023 42.2045C34.3677 42.1151 34.729 42.0521 35.1068 42.0156C35.5509 41.9692 35.9089 41.9261 36.1807 41.8864C36.4524 41.8433 36.6497 41.7803 36.7723 41.6974C36.8949 41.6146 36.9562 41.492 36.9562 41.3295V41.2997C36.9562 40.9848 36.8568 40.7412 36.6579 40.5689C36.4624 40.3965 36.184 40.3104 35.8227 40.3104C35.4416 40.3104 35.1383 40.3949 34.9129 40.5639C34.6875 40.7296 34.5384 40.9384 34.4655 41.1903L32.5067 41.0312C32.6061 40.5672 32.8016 40.1662 33.0933 39.8281C33.385 39.4867 33.7612 39.2249 34.2219 39.0426C34.6859 38.857 35.2228 38.7642 35.8327 38.7642C36.2569 38.7642 36.6629 38.8139 37.0507 38.9134C37.4418 39.0128 37.7881 39.1669 38.0898 39.3757C38.3947 39.5845 38.635 39.853 38.8106 40.1811C38.9863 40.5059 39.0741 40.8954 39.0741 41.3494V46.5H37.0656V45.4411H37.0059C36.8833 45.6797 36.7193 45.8902 36.5138 46.0724C36.3083 46.2514 36.0613 46.3923 35.773 46.495C35.4846 46.5945 35.1515 46.6442 34.7737 46.6442ZM35.3802 45.1825C35.6918 45.1825 35.9669 45.1212 36.2055 44.9986C36.4442 44.8726 36.6314 44.7036 36.7673 44.4915C36.9032 44.2794 36.9711 44.0391 36.9711 43.7706V42.9602C36.9049 43.0033 36.8137 43.0431 36.6977 43.0795C36.585 43.1127 36.4574 43.1442 36.3149 43.174C36.1724 43.2005 36.0299 43.2254 35.8873 43.2486C35.7448 43.2685 35.6156 43.2867 35.4996 43.3033C35.251 43.3397 35.0339 43.3977 34.8483 43.4773C34.6627 43.5568 34.5185 43.6645 34.4157 43.8004C34.313 43.933 34.2616 44.0987 34.2616 44.2976C34.2616 44.5859 34.366 44.8063 34.5748 44.9588C34.787 45.108 35.0554 45.1825 35.3802 45.1825ZM41.7513 49.3636C41.4829 49.3636 41.231 49.3421 40.9956 49.299C40.7636 49.2592 40.5714 49.2079 40.4189 49.1449L40.8962 47.5639C41.1448 47.6402 41.3685 47.6816 41.5674 47.6882C41.7696 47.6948 41.9436 47.6484 42.0894 47.549C42.2385 47.4496 42.3595 47.2805 42.4523 47.0419L42.5766 46.7188L39.8373 38.8636H42.0645L43.6455 44.4716H43.7251L45.3209 38.8636H47.5631L44.5951 47.3253C44.4526 47.7363 44.2587 48.0942 44.0134 48.3991C43.7715 48.7074 43.4649 48.9444 43.0937 49.1101C42.7224 49.2791 42.275 49.3636 41.7513 49.3636ZM50.6194 46.6442C50.1322 46.6442 49.698 46.5597 49.3169 46.3906C48.9357 46.2183 48.6341 45.9647 48.412 45.63C48.1933 45.2919 48.0839 44.871 48.0839 44.3672C48.0839 43.9429 48.1618 43.5866 48.3176 43.2983C48.4733 43.0099 48.6855 42.7779 48.9539 42.6023C49.2224 42.4266 49.5273 42.294 49.8687 42.2045C50.2134 42.1151 50.5747 42.0521 50.9525 42.0156C51.3966 41.9692 51.7546 41.9261 52.0264 41.8864C52.2981 41.8433 52.4954 41.7803 52.618 41.6974C52.7406 41.6146 52.8019 41.492 52.8019 41.3295V41.2997C52.8019 40.9848 52.7025 40.7412 52.5036 40.5689C52.3081 40.3965 52.0297 40.3104 51.6684 40.3104C51.2873 40.3104 50.984 40.3949 50.7586 40.5639C50.5332 40.7296 50.3841 40.9384 50.3112 41.1903L48.3524 41.0312C48.4518 40.5672 48.6473 40.1662 48.939 39.8281C49.2307 39.4867 49.6069 39.2249 50.0676 39.0426C50.5316 38.857 51.0685 38.7642 51.6784 38.7642C52.1026 38.7642 52.5086 38.8139 52.8964 38.9134C53.2875 39.0128 53.6338 39.1669 53.9355 39.3757C54.2404 39.5845 54.4807 39.853 54.6563 40.1811C54.832 40.5059 54.9198 40.8954 54.9198 41.3494V46.5H52.9113V45.4411H52.8517C52.729 45.6797 52.565 45.8902 52.3595 46.0724C52.154 46.2514 51.907 46.3923 51.6187 46.495C51.3303 46.5945 50.9972 46.6442 50.6194 46.6442ZM51.2259 45.1825C51.5375 45.1825 51.8126 45.1212 52.0512 44.9986C52.2899 44.8726 52.4771 44.7036 52.613 44.4915C52.7489 44.2794 52.8169 44.0391 52.8169 43.7706V42.9602C52.7506 43.0033 52.6594 43.0431 52.5434 43.0795C52.4307 43.1127 52.3031 43.1442 52.1606 43.174C52.0181 43.2005 51.8756 43.2254 51.733 43.2486C51.5905 43.2685 51.4613 43.2867 51.3453 43.3033C51.0967 43.3397 50.8796 43.3977 50.694 43.4773C50.5084 43.5568 50.3642 43.6645 50.2615 43.8004C50.1587 43.933 50.1073 44.0987 50.1073 44.2976C50.1073 44.5859 50.2117 44.8063 50.4205 44.9588C50.6327 45.108 50.9011 45.1825 51.2259 45.1825ZM60.6247 38.8636V40.4545H56.026V38.8636H60.6247ZM57.07 37.0341H59.1879V44.1534C59.1879 44.349 59.2178 44.5014 59.2774 44.6108C59.3371 44.7169 59.42 44.7914 59.526 44.8345C59.6354 44.8776 59.7613 44.8991 59.9039 44.8991C60.0033 44.8991 60.1027 44.8909 60.2021 44.8743C60.3016 44.8544 60.3778 44.8395 60.4308 44.8295L60.7639 46.4055C60.6579 46.4387 60.5087 46.4768 60.3165 46.5199C60.1243 46.5663 59.8906 46.5945 59.6155 46.6044C59.1051 46.6243 58.6576 46.5563 58.2732 46.4006C57.892 46.2448 57.5954 46.0028 57.3833 45.6747C57.1711 45.3466 57.0667 44.9323 57.07 44.4318V37.0341Z" fill="#25587D"/>
</svg>
